<?xml version="1.0" encoding="utf-8"?>
<!-- Generator: Adobe Illustrator 19.0.0, SVG Export Plug-In . SVG Version: 6.00 Build 0)  -->
<svg version="1.1" id="Layer_1" xmlns="http://www.w3.org/2000/svg" xmlns:xlink="http://www.w3.org/1999/xlink" x="0px" y="0px"
	 width="192.96825px" height="192.96825px" viewBox="0 0 192.96825 192.96825" enable-background="new 0 0 192.96825 192.96825"
	 xml:space="preserve">
<g>
	<path fill="#A28C32" d="M151.48413,151.48413h-110.5v-110.5h110.5V151.48413z M45.98413,146.48413h100.5v-100.5h-100.5V146.48413z"
		/>
	
		<rect x="21.62859" y="93.81806" transform="matrix(-0.70711 0.70711 -0.70711 -0.70711 232.37839 96.38179)" fill="#A28C32" width="149.19856" height="4.99995"/>
	<g>
		<path fill="#A28C32" d="M57.08413,57.18413h7.8c3,0,6.2,0.5,8.6,2c2.3,1.5,3.5,3.9,3.5,6.7c0,2.9-1.4,5.2-4.7,6.60001
			c3.9,1.2,6,3.89999,6,7.6c0,3.7-2.1,6.5-5.4,7.9c-2.4,1-5.6,1.3-8.4,1.3h-7.4V57.18413z M61.98413,70.68413h2.8
			c4.5,0,7.3-1.4,7.3-4.5c0-1.8-0.6-2.9-1.7-3.6c-1.6-1-3.8-1.1-6.4-1.1h-2C61.98412,61.48413,61.98412,70.68413,61.98413,70.68413z
			 M61.98413,84.98412h2.2c2.5,0,4.8-0.1,6.5-0.9c1.4-0.7,2.4-2,2.4-4c0-3.1-2.2-5.1-6.3-5.1h-4.8V84.98412z"/>
	</g>
</g>
<g>
	<path fill="#A28C32" d="M120.48412,138.58412h-3.4l-10.5-26.2v26.3h-4.9v-32.2h7.6l9.50001,24.50001l9.7-24.50001h7.59999v32.1
		h-4.89999v-26.2L120.48412,138.58412z"/>
</g>
<g id="XMLID_14_">
</g>
<g id="XMLID_15_">
</g>
<g id="XMLID_16_">
</g>
<g id="XMLID_17_">
</g>
<g id="XMLID_18_">
</g>
<g id="XMLID_19_">
</g>
</svg>
