<?xml version="1.0" encoding="utf-8"?>
<!-- Generator: Adobe Illustrator 19.2.0, SVG Export Plug-In . SVG Version: 6.00 Build 0)  -->
<!DOCTYPE svg PUBLIC "-//W3C//DTD SVG 1.1//EN" "http://www.w3.org/Graphics/SVG/1.1/DTD/svg11.dtd">
<svg version="1.1" id="Layer_1" xmlns="http://www.w3.org/2000/svg" xmlns:xlink="http://www.w3.org/1999/xlink" x="0px" y="0px"
	 viewBox="0 0 358.4 110.5" enable-background="new 0 0 358.4 110.5" xml:space="preserve">
<g>
	<g>
		<path d="M156.3,24.1c3.7,0,8.2,1.9,8.2,6.9c0,5.1-4.4,6.9-8.2,6.9h-3.4v9h-3.5V24.1H156.3z M152.8,34.9h2.6c3,0,5.2-1,5.2-3.8
			c0-2.4-1.9-3.9-4.6-3.9h-3.3V34.9z"/>
		<path d="M178.1,24.1c3.6,0,7.9,1.9,7.9,6.6c0,3.8-2.7,5.8-5.4,6.4l7.2,9.8h-4.4l-6.7-9.5h-2v9.5h-3.5V24.1H178.1z M174.8,34.3h2.6
			c2.9,0,5-1,5-3.5c0-2.2-1.8-3.6-4.4-3.6h-3.2V34.3z"/>
		<path d="M204.9,47.3c-6.7,0-11.8-5.3-11.8-11.8c0-6.5,5.1-11.8,11.8-11.8c6.7,0,11.8,5.3,11.8,11.8
			C216.7,42,211.5,47.3,204.9,47.3z M204.9,26.8c-4.7,0-8.1,3.8-8.1,8.7c0,4.9,3.4,8.7,8.1,8.7c4.7,0,8.1-3.8,8.1-8.7
			C212.9,30.6,209.6,26.8,204.9,26.8z"/>
		<path d="M231.6,24.1c3.7,0,8.2,1.9,8.2,6.9c0,5.1-4.4,6.9-8.2,6.9h-3.4v9h-3.5V24.1H231.6z M228.2,34.9h2.6c3,0,5.2-1,5.2-3.8
			c0-2.4-1.9-3.9-4.6-3.9h-3.3V34.9z"/>
		<path d="M246.7,46.9V24.1h13.9v3.1h-10.4v6.5h10.4v3.1h-10.4v7.2h10.4v3.1H246.7z"/>
		<path d="M275.7,24.1c3.6,0,7.9,1.9,7.9,6.6c0,3.8-2.7,5.8-5.4,6.4l7.2,9.8H281l-6.7-9.5h-2v9.5h-3.5V24.1H275.7z M272.3,34.3h2.6
			c2.9,0,5-1,5-3.5c0-2.2-1.8-3.6-4.4-3.6h-3.2V34.3z"/>
		<path d="M298.9,27.2v19.7h-3.5V27.2h-5.7v-3.1h14.8v3.1H298.9z"/>
		<path d="M317.5,46.9v-9.8l-7.3-13h4.3l4.8,9.3h0.1l4.9-9.3h4.1L321,37.2v9.7H317.5z"/>
		<path d="M356.4,47.6l-4-3.6c-1.7,2.3-4.3,3.3-7,3.3c-4.1,0-7.7-3.3-7.7-7.1c0-2.6,1.5-4.9,3.8-6.1c-1.2-1.4-2.1-2.8-2.1-4.7
			c0-3.4,3.3-5.7,6.5-5.7c2.9,0,5.3,1.6,6,4.3l-3.1,0.9c-0.4-1.4-1.5-2.2-3.1-2.2c-1.7,0-3.1,1.1-3.1,2.8c0,1.7,1.3,2.9,3.5,4.9
			l-2,2.3l-0.6-0.6c-1.5,0.7-2.5,2.2-2.5,4c0,2.3,2.1,4.2,4.6,4.2c1.9,0,3.5-0.8,4.5-2.3l-2.6-2.3l2-2.3l8.8,7.9L356.4,47.6z"/>
		<path d="M156.3,61.3c3.7,0,8.2,1.9,8.2,6.9c0,5.1-4.4,6.9-8.2,6.9h-3.4v9h-3.5V61.3H156.3z M152.8,72.1h2.6c3,0,5.2-1,5.2-3.8
			c0-2.4-1.9-3.9-4.6-3.9h-3.3V72.1z"/>
		<path d="M178.1,61.3c3.6,0,7.9,1.9,7.9,6.6c0,3.8-2.7,5.8-5.4,6.4l7.2,9.8h-4.4l-6.7-9.5h-2v9.5h-3.5V61.3H178.1z M174.8,71.5h2.6
			c2.9,0,5-1,5-3.5c0-2.2-1.8-3.6-4.4-3.6h-3.2V71.5z"/>
		<path d="M204.9,84.5c-6.7,0-11.8-5.3-11.8-11.8s5.1-11.8,11.8-11.8c6.7,0,11.8,5.3,11.8,11.8S211.5,84.5,204.9,84.5z M204.9,64
			c-4.7,0-8.1,3.8-8.1,8.7s3.4,8.7,8.1,8.7c4.7,0,8.1-3.8,8.1-8.7S209.6,64,204.9,64z"/>
		<path d="M229.5,78.3c0,1.9-0.4,3.4-1.1,4.5c-0.9,1.2-2.2,1.8-4.4,1.8c-1.1,0-2.5-0.3-3.6-0.8l1-2.8c0.7,0.3,1.3,0.5,2.1,0.5
			c1,0,1.7-0.3,2-0.8c0.4-0.6,0.5-1.5,0.5-2.8V61.3h3.5V78.3z"/>
		<path d="M238.5,84.1V61.3h13.9v3.1H242v6.5h10.4v3.1H242V81h10.4v3.1H238.5z"/>
		<path d="M271.8,81.4c1.8,0,3.5-0.6,5-1.7l1.9,2.6c-2,1.4-4.4,2.2-6.9,2.2c-6.8,0-12.2-4.7-12.2-11.8c0-6.7,5.5-11.8,12.2-11.8
			c2.3,0,4.4,0.7,6.3,1.9l-1.7,2.7c-1.4-0.9-3-1.5-4.7-1.5c-5,0-8.5,3.7-8.5,8.7C263.2,78,266.7,81.4,271.8,81.4z"/>
		<path d="M292.9,64.4v19.7h-3.5V64.4h-5.7v-3.1h14.8v3.1H292.9z"/>
		<path d="M312.3,64c-2.2,0-3.8,1-3.8,2.9c0,1.9,2.1,2.6,4.5,3.4c3.2,1.1,7,2.6,7,7c0,5.1-4.6,7.1-8.1,7.1c-3.4,0-5.9-1.1-8.4-3.5
			l2.4-2.3c2.1,2.1,3.6,2.7,6,2.7c2.2,0,4.4-1.1,4.4-3.7c0-2.4-2.4-3.2-4.9-4.1c-3.1-1.1-6.4-2.6-6.4-6.4c0-4.3,3.3-6.3,7-6.3
			c2.8,0,5.1,0.8,7.2,2.4l-2.1,2.5C316,64.9,314.1,64,312.3,64z"/>
	</g>
	<g>
		<path fill="#A28C31" d="M110.5,110.5H0V0h110.5V110.5z M5,105.5h100.5V5H5V105.5z"/>
		
			<rect x="-19.4" y="52.8" transform="matrix(0.7071 -0.7071 0.7071 0.7071 -22.8908 55.2632)" fill="#A28C31" width="149.2" height="5"/>
		<g>
			<path fill="#A28C31" d="M16.1,16.2h7.8c3,0,6.2,0.5,8.6,2c2.3,1.5,3.5,3.9,3.5,6.7c0,2.9-1.4,5.2-4.7,6.6c3.9,1.2,6,3.9,6,7.6
				c0,3.7-2.1,6.5-5.4,7.9c-2.4,1-5.6,1.3-8.4,1.3h-7.4V16.2z M21,29.7h2.8c4.5,0,7.3-1.4,7.3-4.5c0-1.8-0.6-2.9-1.7-3.6
				c-1.6-1-3.8-1.1-6.4-1.1h-2V29.7z M21,44h2.2c2.5,0,4.8-0.1,6.5-0.9c1.4-0.7,2.4-2,2.4-4c0-3.1-2.2-5.1-6.3-5.1H21V44z"/>
		</g>
	</g>
	<g>
		<path fill="#A28C31" d="M79.5,97.6h-3.4L65.6,71.4v26.3h-4.9V65.5h7.6L77.8,90l9.7-24.5h7.6v32.1h-4.9V71.4L79.5,97.6z"/>
	</g>
</g>
</svg>
