<?xml version="1.0" encoding="utf-8"?>
<!-- Generator: Adobe Illustrator 19.2.0, SVG Export Plug-In . SVG Version: 6.00 Build 0)  -->
<!DOCTYPE svg PUBLIC "-//W3C//DTD SVG 1.1//EN" "http://www.w3.org/Graphics/SVG/1.1/DTD/svg11.dtd">
<svg version="1.1" id="Layer_1" xmlns="http://www.w3.org/2000/svg" xmlns:xlink="http://www.w3.org/1999/xlink" x="0px" y="0px"
	 viewBox="0 0 598.7 394.6" enable-background="new 0 0 598.7 394.6" xml:space="preserve">
<g>
	<polygon fill="#A28C31" points="379.6,64.5 367.3,51.1 374.7,44.3 379.9,50 404,26 411.1,33.1 	"/>
	<g>
		<line fill="#A28C31" x1="0" y1="258.4" x2="598.7" y2="258.4"/>
		<rect y="253.4" fill="#A28C31" width="598.7" height="10"/>
	</g>
	<path fill="#A28C31" d="M436.5,263.4H173.1V0h263.4V263.4z M183.1,253.4h243.4V10H183.1V253.4z"/>
	<rect x="207.4" y="47.2" fill="#A28C31" width="144.4" height="10"/>
	<polygon fill="#A28C31" points="379.6,117.6 367.3,104.2 374.7,97.4 379.9,103.1 404,79.1 411.1,86.2 	"/>
	<rect x="207.4" y="100.3" fill="#A28C31" width="144.4" height="10"/>
	<polygon fill="#A28C31" points="379.6,170.7 367.3,157.3 374.7,150.5 379.9,156.3 404,132.2 411.1,139.3 	"/>
	<rect x="207.4" y="153.4" fill="#A28C31" width="144.4" height="10"/>
	<polygon fill="#A28C31" points="379.6,223.8 367.3,210.4 374.7,203.6 379.9,209.4 404,185.3 411.1,192.4 	"/>
	<rect x="207.4" y="206.5" fill="#A28C31" width="144.4" height="10"/>
	<path fill="#A28C31" d="M139.6,367.8v-66.7l241.8,15.1l0.3,36.5L139.6,367.8z M149.6,311.8v45.4l222-13.8l-0.2-17.7L149.6,311.8z"
		/>
	<path fill="#A28C31" d="M139.1,367.8c-18.4,0-33.3-14.9-33.3-33.3c0-18.4,14.9-33.3,33.3-33.3c18.4,0,33.3,14.9,33.3,33.3
		C172.4,352.8,157.4,367.8,139.1,367.8z M139.1,311.2c-12.8,0-23.2,10.4-23.2,23.2c0,12.8,10.4,23.2,23.2,23.2
		c12.8,0,23.2-10.4,23.2-23.2C162.3,321.7,151.9,311.2,139.1,311.2z"/>
	<path fill="#A28C31" d="M430.7,394.6c-33.2,0-60.2-27-60.2-60.2c0-33.2,27-60.2,60.2-60.2c24.9,0,46.8,14.9,56,38.1l2.7,6.8h-58.9
		v30.5h58.9l-2.7,6.8C477.6,379.7,455.6,394.6,430.7,394.6z M430.7,284.3c-27.7,0-50.2,22.5-50.2,50.2s22.5,50.2,50.2,50.2
		c18.2,0,34.5-9.6,43.4-24.9h-53.5v-50.5h53.5C465.2,293.9,448.9,284.3,430.7,284.3z"/>
</g>
</svg>
