<?xml version="1.0" encoding="utf-8"?>
<!-- Generator: Adobe Illustrator 19.2.0, SVG Export Plug-In . SVG Version: 6.00 Build 0)  -->
<!DOCTYPE svg PUBLIC "-//W3C//DTD SVG 1.1//EN" "http://www.w3.org/Graphics/SVG/1.1/DTD/svg11.dtd">
<svg version="1.1" id="Layer_1" xmlns="http://www.w3.org/2000/svg" xmlns:xlink="http://www.w3.org/1999/xlink" x="0px" y="0px"
	 viewBox="0 0 598.7 394.6" enable-background="new 0 0 598.7 394.6" xml:space="preserve">
<polygon fill="none" points="303.3,124.8 303.3,175.1 253,175.1 253,225.4 202.6,225.4 202.6,275.8 153.3,275.8 153.3,314.8 
	445.4,314.8 445.4,275.8 445.4,265.8 445.4,166.1 475.2,166.1 353.6,88.2 353.6,124.8 "/>
<path fill="#A28C31" d="M455.4,265.8v-89.6h53.9L353.6,76.3l-10-6.4v11.9v33h-50.3v50.3H243v50.3h-50.3v50.3h-39.4h-14.8l0,0H0v5v5
	h127.3v0h16v49h312.1v-49h143.3v-10H455.4z M445.4,166.1v99.6v10v39H153.3v-39h49.4v-50.3H253v-50.3h50.3v-50.3h50.3V88.2l121.6,78
	H445.4z"/>
</svg>
