<?xml version="1.0" encoding="utf-8"?>
<!-- Generator: Adobe Illustrator 19.2.0, SVG Export Plug-In . SVG Version: 6.00 Build 0)  -->
<!DOCTYPE svg PUBLIC "-//W3C//DTD SVG 1.1//EN" "http://www.w3.org/Graphics/SVG/1.1/DTD/svg11.dtd">
<svg version="1.1" id="Layer_1" xmlns="http://www.w3.org/2000/svg" xmlns:xlink="http://www.w3.org/1999/xlink" x="0px" y="0px"
	 viewBox="0 0 598.7 394.6" enable-background="new 0 0 598.7 394.6" xml:space="preserve">
<g>
	<path fill="#A28C31" d="M598.7,252.4H497.9V175h39.6L422.8,89.2l-57.7,43.1L300.3,84l-68.7,51.4l-61.7-46.1L55.2,175h38.9v77.4H0
		v10h94.1v16.7h116v31.6h179.8v-31.6h108v-16.7h100.7V252.4z M104.1,269.1V165H85.3l84.6-63.2l53.4,39.9l-58,43.3h44.9v84.1H104.1z
		 M379.9,300.6H220.1V175h-24.8l105-78.5l105,78.5h-25.5V300.6z M487.9,269.1h-98V185h45.5l-62-46.3l49.4-36.9l84.6,63.2h-19.5
		V269.1z"/>
</g>
</svg>
