<?xml version="1.0" encoding="utf-8"?>
<!-- Generator: Adobe Illustrator 19.2.0, SVG Export Plug-In . SVG Version: 6.00 Build 0)  -->
<!DOCTYPE svg PUBLIC "-//W3C//DTD SVG 1.1//EN" "http://www.w3.org/Graphics/SVG/1.1/DTD/svg11.dtd">
<svg version="1.1" id="Layer_1" xmlns="http://www.w3.org/2000/svg" xmlns:xlink="http://www.w3.org/1999/xlink" x="0px" y="0px"
	 viewBox="0 0 598.7 394.6" enable-background="new 0 0 598.7 394.6" xml:space="preserve">
<g>
	<path fill="#A28C31" d="M455.4,280v-89.6h53.9l-210-134.7l-210,134.7h53.9V280H0v5v5h143.3v49h312.1v-49h143.3v-10H455.4z
		 M445.4,180.3V280v10v39H153.3v-39v-10v-99.6h-29.8L299.3,67.5l175.9,112.8H445.4z"/>
	<path fill="#A28C31" d="M348.1,199.8l1.7-9.9l-20.2-3.4l-3.4,20.2l9.9,1.7l0.7-3.9c6.7,15.1,3.7,33.2-8.5,45.3
		c-14.5,14.5-37.6,16-53.8,3.4l-6.1,7.9c9.2,7.1,20.1,10.6,31.1,10.6c13.1,0,26.1-5,36-14.9c15.4-15.4,19-38.6,10-57.6L348.1,199.8z
		"/>
	<path fill="#A28C31" d="M248.9,251.8l20.2,3.4l3.4-20.2l-9.9-1.7l-0.7,3.9c-6.7-15.1-3.7-33.3,8.4-45.4c14.5-14.5,37.6-16,53.8-3.4
		l6.1-7.9c-20.1-15.6-49-13.8-67,4.2c-15.4,15.4-19,38.6-10,57.6l-2.8-0.5L248.9,251.8z"/>
</g>
</svg>
