<?xml version="1.0" encoding="utf-8"?>
<!-- Generator: Adobe Illustrator 19.2.0, SVG Export Plug-In . SVG Version: 6.00 Build 0)  -->
<!DOCTYPE svg PUBLIC "-//W3C//DTD SVG 1.1//EN" "http://www.w3.org/Graphics/SVG/1.1/DTD/svg11.dtd">
<svg version="1.1" id="Layer_1" xmlns="http://www.w3.org/2000/svg" xmlns:xlink="http://www.w3.org/1999/xlink" x="0px" y="0px"
	 viewBox="0 0 93.6 67.7" enable-background="new 0 0 93.6 67.7" xml:space="preserve">
<g>
	<polygon fill="#27367A" points="6.5,67.7 39,67.7 39,46.2 	"/>
	<polygon fill="#27367A" points="88.2,0 54.4,0 54.4,22.3 	"/>
	<polygon fill="#27367A" points="0,41.3 0,58.2 25.7,41.3 	"/>
	<polygon fill="#27367A" points="0,11.3 0,25.8 22,25.8 	"/>
	<polygon fill="#27367A" points="39,0 3.6,0 39,23.3 	"/>
	<polygon fill="#27367A" points="54.4,67.7 85.4,67.7 54.4,47.2 	"/>
	<polygon fill="#27367A" points="93.6,25.8 93.6,29.3 93.6,37.8 93.6,41.3 66.2,41.3 93.6,59.4 93.6,10.1 69.8,25.8 	"/>
	<polygon fill="#D32030" points="35,41.3 0,64.4 0,67.7 1.2,67.7 39,42.7 39,41.3 	"/>
	<polygon fill="#D32030" points="93.6,6.6 93.6,2.6 58.4,25.8 64.5,25.8 	"/>
	<polygon fill="#D32030" points="0,3.8 0,7.8 27.3,25.8 33.4,25.8 	"/>
	<polygon fill="#D32030" points="54.4,41.3 54.4,43.7 90.7,67.7 93.6,67.7 93.6,65.6 56.8,41.3 	"/>
	<polygon fill="#E5E5E5" points="93.6,0 88.2,0 54.4,22.3 54.4,0 51,0 51,24.6 51,29.3 53.2,29.3 59.3,29.3 64.6,29.3 93.6,29.3 
		93.6,25.8 69.8,25.8 93.6,10.1 93.6,6.6 64.5,25.8 58.4,25.8 93.6,2.6 	"/>
	<polygon fill="#E5E5E5" points="40.2,37.8 40.2,37.8 40.2,37.8 	"/>
	<polygon fill="#E5E5E5" points="51.6,37.8 51.6,37.8 51.6,37.8 	"/>
	<polygon fill="#E5E5E5" points="40.2,37.8 40.2,37.8 40.2,37.8 30.9,37.8 0,37.8 0,41.3 25.7,41.3 0,58.2 0,64.4 35,41.3 39,41.3 
		39,42.7 1.2,67.7 6.5,67.7 39,46.2 39,67.7 42.4,67.7 42.4,43.9 42.4,40.4 42.4,39.3 42.4,37.8 	"/>
	<polygon fill="#E5E5E5" points="39,0 39,23.3 3.6,0 0,0 0,3.8 33.4,25.8 27.3,25.8 0,7.8 0,11.3 22,25.8 0,25.8 0,29.3 27.3,29.3 
		32.6,29.3 38.6,29.3 42.4,29.3 42.4,25.6 42.4,0 	"/>
	<polygon fill="#E5E5E5" points="56.8,41.3 93.6,65.6 93.6,59.4 66.2,41.3 93.6,41.3 93.6,37.8 60.9,37.8 51.6,37.8 51.6,37.8 
		51.6,37.8 51,37.8 51,38.2 51,41.5 51,45 51,67.7 54.4,67.7 54.4,47.2 85.4,67.7 90.7,67.7 54.4,43.7 54.4,41.3 	"/>
	<polygon fill="#D32030" points="64.6,29.3 59.3,29.3 53.2,29.3 51,29.3 51,24.6 51,0 42.4,0 42.4,25.6 42.4,29.3 38.6,29.3 
		32.6,29.3 27.3,29.3 0,29.3 0,37.8 30.9,37.8 40.2,37.8 40.2,37.8 42.4,37.8 42.4,39.3 42.4,40.4 42.4,43.9 42.4,67.7 51,67.7 
		51,45 51,41.5 51,38.2 51,37.8 51.6,37.8 51.6,37.8 60.9,37.8 93.6,37.8 93.6,29.3 	"/>
</g>
</svg>
