<?xml version="1.0" encoding="utf-8"?>
<!-- Generator: Adobe Illustrator 19.2.0, SVG Export Plug-In . SVG Version: 6.00 Build 0)  -->
<!DOCTYPE svg PUBLIC "-//W3C//DTD SVG 1.1//EN" "http://www.w3.org/Graphics/SVG/1.1/DTD/svg11.dtd">
<svg version="1.1" id="Layer_1" xmlns="http://www.w3.org/2000/svg" xmlns:xlink="http://www.w3.org/1999/xlink" x="0px" y="0px"
	 viewBox="0 0 167.2 192.2" style="enable-background:new 0 0 167.2 192.2;" xml:space="preserve">
<style type="text/css">
	.st0{fill:#FFFFFF;}
	.st1{fill:#A18B31;}
</style>
<g>
	<polygon class="st0" points="164.7,2.5 2.5,2.5 2.5,164.7 59.6,164.7 83.6,188.7 107.6,164.7 164.7,164.7 	"/>
	<path class="st1" d="M83.6,192.2l-25-25H0V0h167.2v167.2h-58.6L83.6,192.2z M5,162.2h55.7l23,23l23-23h55.7V5H5V162.2z"/>
	<path class="st1" d="M138.9,138.9H28.3V28.3h110.5V138.9z M33.3,133.9h100.5V33.3H33.3V133.9z"/>
	<rect x="9" y="81.1" transform="matrix(0.7071 -0.7071 0.7071 0.7071 -34.6325 83.6099)" class="st1" width="149.2" height="5"/>
	<g id="XMLID_1_">
		<path id="XMLID_2_" class="st1" d="M44.4,44.5h7.8c3,0,6.2,0.5,8.6,2c2.3,1.5,3.5,3.9,3.5,6.7c0,2.9-1.4,5.2-4.7,6.6
			c3.9,1.2,6,3.9,6,7.6c0,3.7-2.1,6.5-5.4,7.9c-2.4,1-5.6,1.3-8.4,1.3h-7.4V44.5z M49.3,58h2.8c4.5,0,7.3-1.4,7.3-4.5
			c0-1.8-0.6-2.9-1.7-3.6c-1.6-1-3.8-1.1-6.4-1.1h-2V58z M49.3,72.4h2.2c2.5,0,4.8-0.1,6.5-0.9c1.4-0.7,2.4-2,2.4-4
			c0-3.1-2.2-5.1-6.3-5.1h-4.8V72.4z"/>
	</g>
	<g id="XMLID_6_">
		<path id="XMLID_7_" class="st1" d="M107.9,126h-3.4L94,99.7V126h-4.9V93.8h7.6l9.5,24.5l9.7-24.5h7.6V126h-4.9V99.7L107.9,126z"/>
	</g>
</g>
</svg>
